<?xml version="1.0" encoding="utf-8"?>
<!-- Generator: Adobe Illustrator 27.9.0, SVG Export Plug-In . SVG Version: 6.00 Build 0)  -->
<svg version="1.1" id="Layer_1" xmlns="http://www.w3.org/2000/svg" xmlns:xlink="http://www.w3.org/1999/xlink" x="0px" y="0px"
	 viewBox="0 0 1080 898.8" style="enable-background:new 0 0 1080 898.8;" xml:space="preserve">
<style type="text/css">
	.st0{fill:#FF0000;}
	.st1{fill:#361F17;}
	.st2{fill:#FFFFFF;}
	.st3{fill:#F27039;}
</style>
<path class="st0" d="M979.53,898.24H100.47c0-54.6-44.26-98.85-98.85-98.85V99.42c54.6,0,98.85-44.26,98.85-98.85h879.05
	c0,54.6,44.26,98.85,98.85,98.85v699.97C1023.78,799.38,979.53,843.64,979.53,898.24z"/>
<path class="st1" d="M2118.48,853.83h-879.05c0-54.6-44.26-98.85-98.85-98.85V55.01c54.6,0,98.85-44.26,98.85-98.85h879.05
	c0,54.6,44.26,98.85,98.85,98.85v699.97C2162.74,754.98,2118.48,799.24,2118.48,853.83z"/>
<path class="st1" d="M3241.29,853.83h-879.05c0-54.6-44.26-98.85-98.85-98.85V55.01c54.6,0,98.85-44.26,98.85-98.85h879.05
	c0,54.6,44.26,98.85,98.85,98.85v699.97C3285.55,754.98,3241.29,799.24,3241.29,853.83z"/>
<g>
	<g>
		<path class="st2" d="M-802.37-598.98c134.23-109.6,273.62-117.25,419.59-23.6c0.7-6.6,1.3-11.75,1.79-16.92
			c1.8-19.08,6.76-24.2,25.55-24.77c14.5-0.44,29.02-0.06,43.53-0.05c39.72,0.03,79.43-0.09,119.15,0.14
			c23.4,0.14,28.45,4.94,28.61,28.16c0.28,41.24,0.24,82.49-0.15,123.73c-0.27,28.34-8.91,53.15-27.99,75.39
			c-34.36,40.07-32.1,40.65-28.3,94.96c5.06,72.33,7.68,144.83,11.1,217.27c0.97,20.46-4.35,39.28-16.77,55.89
			c-25.05,33.51-68.37,33.22-92.88-0.77c-11.07-15.36-16.18-32.68-16.18-51.55c0-9.79,0-19.59,0-35.43
			c-30.01,29.65-57.46,54.16-90.38,71.54c-32.73,17.29-67.04,29.31-103.56,35.15c-37.34,5.97-74.57,5.22-111.59-2.39
			c-36.17-7.44-70.12-20.6-102-39.42c-32.33-19.09-59.5-44.35-88.61-75.84c0,15.15-0.08,24.61,0.02,34.07
			c0.12,11.45,1.19,22.95,0.43,34.34c-1.9,28.62-24.61,51.91-52.5,54.82c-28.33,2.95-55.06-14.58-63.05-42.23
			c-2.29-7.93-3.17-16.52-3.18-24.81c-0.17-180.25-0.18-360.5-0.07-540.75c0.02-26.75,6.43-33.5,33.08-29.56
			c20.91,3.09,42.05,8.36,61.52,16.44c24.05,9.98,41.68,28.01,48.42,54.58C-805.88-607.03-804.18-603.68-802.37-598.98z
			 M-844.54-283.6c3.37,12.26,4.72,23.77,9.52,33.58c47.33,96.8,124.58,154.27,231.92,163.41
			c112.22,9.55,200.37-36.59,262.57-130.65c5.56-8.4,8.56-19.58,9.49-29.76c3.12-34.2,4.2-68.57,7.09-102.79
			c4-47.47,5.39-48.31-26.54-84.26c-21.8-24.54-29.98-52.42-30.39-83.89c-0.12-9.16-0.66-18.39,0.19-27.48
			c1.39-15.01-4.11-25.43-15.66-35.51c-116.57-101.72-301.5-85.52-399.79,35.25c-6.9,8.48-8.61,17.14-8.58,27.38
			c0.18,64.15,0.05,128.3,0.02,192.46C-804.72-289.66-804.72-289.66-844.54-283.6z M-909.57-640.44
			c-0.44,9.09-1.04,15.82-1.04,22.55c-0.05,167.3-0.05,334.59,0.01,501.89c0,6.08-0.16,12.41,1.42,18.17
			c2.42,8.82,9.44,15.51,18.18,14.7c6.53-0.6,14.26-5.55,18.27-10.94c3.61-4.85,4.17-12.99,3.84-19.57
			c-1.49-29.73-3.43-59.45-5.88-89.12c-2.64-31.95-6.29-63.81-8.99-95.76c-1.44-17,4.36-23.46,21.47-25.79
			c5.12-0.7,10.3-1,18.46-1.76c0-12.21,0.01-23.42,0-34.63c-0.04-74.86-0.23-149.73-0.02-224.59c0.04-14.47-2.06-27.56-14.76-36.42
			C-873.14-631.85-888.74-639.41-909.57-640.44z M-262.22-623.36c-19.34-1.83-19.98-1.84-20.2,10.72
			c-0.46,26.72-0.1,53.45-0.26,80.18c-0.04,6.07-0.04,12.33-1.5,18.14c-2.03,8.08-7.94,13.06-16.42,13.7
			c-8.61,0.65-15.15-3.83-17.93-11.53c-2.27-6.26-3-13.35-3.08-20.09c-0.32-26.72,0.24-53.46-0.24-80.18
			c-0.26-14.17-2.08-14.75-19.42-9.23c0,38.61-0.33,77.51,0.16,116.4c0.2,15.66,5.97,29.51,16.72,41.54
			c11.17,12.51,20.98,26.22,31.81,39.05c7.85,9.3,11.01,19.47,10.08,31.68c-2.56,33.48-5.02,66.98-6.6,100.52
			c-2.66,56.42-4.61,112.87-6.87,169.31c-0.47,11.8,1.76,22.87,9.5,32.16c9.25,11.09,20.71,11.59,28.18-0.74
			c5.26-8.68,8.93-19.75,9.1-29.82c0.48-28.98-0.58-58.02-2.13-86.98c-3.3-61.74-7.16-123.45-11.14-185.15
			c-0.74-11.37,1.98-21.03,9.11-29.74c10.63-13,20.63-26.55,31.78-39.08c11.76-13.22,18.01-28.23,18.09-45.72
			c0.16-36.65,0.07-73.3-0.08-109.95c-0.01-2.05-1.55-4.09-2.87-7.33c-4.87,0.33-9.72,0.66-16.6,1.12c0,8.82,0,16.31,0,23.8
			c0.02,22.15,0.12,44.29-0.01,66.44c-0.04,6.08-0.04,12.31-1.35,18.18c-2.04,9.08-8.34,14.48-17.72,15.31
			c-8.83,0.78-17.18-6.04-19.21-16.24c-1.17-5.9-0.84-12.14-0.85-18.23C-262.26-564.08-262.22-593.04-262.22-623.36z"/>
		<path class="st2" d="M-577.81-558.55c102.37-2.4,191.76,87.21,191.66,192.67c-0.09,96.84-80.1,193.04-195.02,192.02
			c-105.44-0.93-191.21-87.9-190.32-194.29C-770.57-480.12-675.84-561.96-577.81-558.55z M-580.43-213.19
			c78.29,2.75,154.05-60.44,155.79-152.9c1.56-83.47-70.65-155.05-154.95-154.77c-83.92,0.27-152.29,69.18-152.68,153.89
			C-732.66-281.98-665.01-213.47-580.43-213.19z"/>
	</g>
</g>
<g>
	<g>
		<path class="st2" d="M-1122.39,917.7c0-13.14-0.08-22.92,0.01-32.69c0.57-60.08,43.85-105.2,103.51-105.44
			c145.11-0.58,290.23-0.56,435.34,0.03c56.73,0.23,100.86,43.35,101.39,100.01c1.01,106.92,0.95,213.85,0.01,320.77
			c-0.47,52.76-43.93,95.37-96.45,97.55c-12.8,0.53-25.65,0.08-40.75,0.08c-0.44,11.98-1,21.62-1.12,31.26
			c-0.76,65.37-44.09,109.01-109.82,109.16c-140.53,0.33-281.06-0.03-421.6,0.19c-71.1,0.11-110.53-56.42-109.41-109.85
			c2.11-100.77,2.03-201.65,0.1-302.43c-1.02-53.38,38.78-109,107.88-108.65C-1144.25,917.74-1135.21,917.7-1122.39,917.7z
			 M-940.48,957.14c0,0.03,0,0.05,0,0.08c-71.8,0-143.6-0.39-215.39,0.15c-40.73,0.31-66.79,27.93-66.66,68.43
			c0.31,100.05,1.9,200.13,0.12,300.14c-0.8,44.89,31.29,75.42,73.89,73.58c45.74-1.97,91.64-0.45,137.46-0.45
			c93.18,0,186.38-1.06,279.54,0.5c41.18,0.69,73.01-28.91,72.33-72.95c-1.56-100.8-0.32-201.64-0.78-302.46
			c-0.05-10.37-1.94-21.63-6.33-30.9c-11.95-25.24-33.19-36.34-61.1-36.23C-798.41,957.33-869.45,957.14-940.48,957.14z
			 M-620.45,1259.24c17.29,0,31.8,1.71,45.76-0.35c31.33-4.62,51.15-27.59,53.32-59.48c0.88-12.94,1.45-25.93,1.47-38.9
			c0.13-84.77,0.14-169.54-0.03-254.31c-0.02-11.42-0.64-22.93-2.12-34.24c-3.41-26.03-22.29-46.56-47.99-51.91
			c-9.63-2-19.68-2.69-29.54-2.7c-135.18-0.17-270.35-0.18-405.53,0.03c-10.6,0.02-21.58,0.64-31.71,3.42
			c-24.13,6.63-39.98,23.2-44.4,47.53c-2.77,15.22-0.52,31.36-0.52,49.41c10.04,0,18.25,0,26.46,0c108.45,0,216.89-0.27,325.34,0.1
			c66.13,0.23,109.21,43.51,109.41,109.11c0.21,67.97,0.08,135.94,0.09,203.91C-620.45,1239.19-620.45,1247.51-620.45,1259.24z"/>
		<path class="st2" d="M-937.81,1022.8c66.47,0,132.93-0.04,199.4,0.02c30.63,0.03,33.55,3.07,33.72,34.54
			c0.16,30.56,0.17,61.11,0.37,91.67c0.15,22.82-5.11,28.88-27.6,28.96c-64.94,0.24-129.88,0.09-194.81,0.1
			c-70.29,0-140.57,0-210.86-0.01c-6.11,0-12.25,0.25-18.33-0.22c-14.67-1.16-21.11-6.58-21.37-21.41
			c-0.66-37.42-0.63-74.87,0.05-112.29c0.27-14.95,7.49-20.77,23.99-21.2c19.85-0.51,39.72-0.15,59.59-0.15
			C-1041.71,1022.8-989.76,1022.8-937.81,1022.8z M-744.36,1064.67c-25.95-4.58-375.28-3.68-392.42,0.91c0,23.8,0,47.77,0,71.39
			c23.31,4.86,374.8,4.14,392.42-0.6C-744.36,1112.43-744.36,1088.38-744.36,1064.67z"/>
		<path class="st2" d="M-851.31,1311.56c38.15,0,76.3-0.02,114.45,0.02c5.33,0.01,10.7-0.1,16,0.45c10.03,1.04,14.58,7.85,15.36,17
			c0.79,9.21-2.59,16.93-12.47,19.05c-7.39,1.59-15.09,2.36-22.66,2.37c-74.01,0.17-148.02,0.17-222.03,0
			c-8.35-0.02-16.87-0.53-25-2.26c-9.26-1.98-14.49-9.21-14.06-18.39c0.43-9.09,6.31-15.67,15.43-17.54
			c5.89-1.21,12.15-0.73,18.24-0.74c38.91-0.05,77.83-0.03,116.74-0.03C-851.31,1311.51-851.31,1311.53-851.31,1311.56z"/>
		<path class="st2" d="M-800.22,1265.77c-21.37,0-42.74,0.08-64.11-0.06c-5.3-0.03-10.93,0.2-15.83-1.43
			c-7.66-2.54-13.1-8.06-12.98-16.9c0.13-9.47,4.97-16.03,14.18-18.27c5.1-1.24,10.59-1.16,15.91-1.17
			c41.98-0.07,83.96-0.02,125.94,0c3.82,0,7.66-0.17,11.44,0.19c14.29,1.35,20.64,7.51,20.29,19.4
			c-0.34,11.7-6.76,17.47-21.58,18.21c-10.66,0.53-21.36,0.09-32.05,0.09c-13.74,0-27.48,0-41.22,0
			C-800.22,1265.81-800.22,1265.79-800.22,1265.77z"/>
		<path class="st2" d="M-1112.5,1349.55c-14.49,0-29.05,0.87-43.46-0.24c-14.48-1.12-21.41-8.43-21.08-19.15
			c0.33-10.69,8.38-18.27,21.72-18.47c29.01-0.43,58.03-0.42,87.04,0.07c12.79,0.21,21.27,8.63,21.19,19.05
			c-0.07,9.57-7.26,17.33-19.67,18.17c-15.19,1.03-30.49,0.25-45.75,0.25C-1112.5,1349.33-1112.5,1349.44-1112.5,1349.55z"/>
	</g>
</g>
<g>
	<g>
		<path class="st2" d="M410.42,652.11c-15.06,45.81-44.5,73.01-90.86,74.08c-49.78,1.15-80.37-27.74-96.26-75.23
			c-17.21,0-33.91,0.27-50.6-0.06c-33.55-0.65-55.55-21.76-57.93-55.3c-0.27-3.8-0.1-7.63-0.11-11.45
			c-0.01-115.32-0.06-230.64,0.11-345.96c0.01-8.29,0.72-16.87,2.91-24.82c6.68-24.19,24.72-38.52,49.67-40.4
			c6.08-0.46,12.21-0.26,18.32-0.26c132.89-0.02,265.77-0.03,398.66-0.04c1.53,0,3.06,0.11,4.58-0.01
			c42.97-3.63,70.97,23.77,67.35,66.27c-0.63,7.37-0.09,14.83-0.09,23.44c8.43,0.89,14.29,2,20.15,2.05
			c22.15,0.21,44.3-0.16,66.44,0.11c39.65,0.49,60.8,15.05,74.88,51.69c9.86,25.64,19.17,51.5,28.85,77.21
			c3.73,9.92,7.82,19.7,12.66,31.84c10.07,0,19.84-0.13,29.61,0.04c10.68,0.19,21.45-0.16,32,1.16
			c25.88,3.24,43.66,21.49,44.08,47.39c0.83,51.16,0.52,102.33,0.17,153.5c-0.12,17.71-5.87,23.23-23.55,23.54
			c-25.17,0.44-50.34,0.11-77.04,0.11c-2.89,6.32-5.64,12.37-8.42,18.41c-17.05,36.97-46.68,56.99-86.6,57.03
			c-38.94,0.04-68.2-19.47-85.61-55.08c-2.97-6.07-5.42-12.4-8.39-19.26C587.18,652.11,499.62,652.11,410.42,652.11z M674.93,611.94
			c3.99-8.29,7.38-15.88,11.22-23.24c19.69-37.69,60.76-57.24,101.71-48.65c33.24,6.97,55.86,26.57,69.02,57.59
			c2.92,6.88,4.46,15.23,14.53,15.26c17.36,0.06,34.71,0.02,50.65,0.02c2.11-3.9,3.43-5.2,3.44-6.52c0.27-42,0.38-84.01,0.61-126.01
			c0.07-11.68-6.63-16.51-17.17-16.92c-11.44-0.45-22.91-0.1-34.37-0.28c-45.92-0.71-39.99,6.64-58.42-40.45
			c-11.95-30.56-23.17-61.4-34.46-92.21c-5.06-13.8-13.07-26.06-28.26-26.77c-31.02-1.44-62.15-0.43-96.32-0.43
			c0,10,0.02,18.13,0,26.26c-0.21,67.22-0.41,134.45-0.68,201.67c-0.02,4.54-0.04,9.17-0.83,13.62
			c-1.74,9.76-8.45,14.21-17.84,14.56c-9.67,0.36-16.36-4.74-18.48-13.86c-1.53-6.56-1.12-13.64-1.13-20.49
			c-0.06-94.73,0.04-189.46-0.1-284.19c-0.04-25.66-4.2-30.12-28.67-30.15c-135.98-0.17-271.97-0.19-407.95-0.08
			c-22.28,0.02-26.78,4.82-27.44,26.76c-0.09,3.05-0.03,6.11-0.03,9.17c0.02,110.77,0.04,221.55,0.07,332.32
			c0,4.58-0.22,9.19,0.15,13.75c1.08,13.22,5,18.82,17.6,19.68c17.25,1.16,34.63,0.29,51.99,0.29
			c15.66-46.34,45.44-74.16,92.99-74.4c48.66-0.25,78.48,28.65,93.92,73.72C499.37,611.94,586.97,611.94,674.93,611.94z
			 M372.76,632.66c0.32-30.14-24.14-55.19-54.53-55.84c-30.64-0.66-56.93,25.37-56.77,56.19c0.16,29.26,26.46,55.05,55.98,54.87
			C347.5,687.7,372.44,662.81,372.76,632.66z M824.81,631.3c-0.52-30.47-25.83-54.98-56.27-54.5c-30.09,0.48-55.01,26.3-54.46,56.44
			c0.55,30.36,26.15,55.09,56.4,54.49C800.99,687.12,825.33,661.85,824.81,631.3z"/>
		<path class="st2" d="M229.49,424.26c16.1-74.84,60.26-119.79,134.92-135.62c4.54-9.91,6.65-23.66,22.68-23.48
			c14.83,0.16,18.11,11.68,21.51,23.14c74.63,15.61,119.92,60.61,135.94,135.44c4.88,1.86,9.98,3.28,14.56,5.68
			c7.68,4.03,9.99,11.14,9.22,19.36c-0.83,8.87-6.26,13.77-14.65,15.08c-6.74,1.06-13.63,1.7-20.45,1.69
			c-98.46-0.21-196.91-0.54-295.37-0.89c-6.09-0.02-12.2-0.15-18.26-0.67c-9.67-0.82-15.65-6.63-16.83-15.86
			c-1.19-9.29,3.64-16.19,12.35-19.75C219.27,426.67,223.79,425.85,229.49,424.26z M270.45,426.75
			c78.52-0.91,155.06,0.81,231.91-1.13c-6.58-55.67-55.9-97.71-113.85-99.56C332.57,324.29,282.27,365.47,270.45,426.75z"/>
	</g>
</g>
<path class="st3" d="M-703.76,544.22h-188.89c0-11.73-9.51-21.24-21.24-21.24V372.57c11.73,0,21.24-9.51,21.24-21.24h188.89
	c0,11.73,9.51,21.24,21.24,21.24v150.41C-694.25,522.98-703.76,532.49-703.76,544.22z"/>
<path class="st3" d="M-462.49,544.22h-188.89c0-11.73-9.51-21.24-21.24-21.24V372.57c11.73,0,21.24-9.51,21.24-21.24h188.89
	c0,11.73,9.51,21.24,21.24,21.24v150.41C-452.98,522.98-462.49,532.49-462.49,544.22z"/>
<path class="st3" d="M-221.22,544.22h-188.89c0-11.73-9.51-21.24-21.24-21.24V372.57c11.73,0,21.24-9.51,21.24-21.24h188.89
	c0,11.73,9.51,21.24,21.24,21.24v150.41C-211.71,522.98-221.22,532.49-221.22,544.22z"/>
<g>
	<g>
		<path class="st2" d="M-850.94,400.37c28.84-23.55,58.79-25.2,90.16-5.07c0.15-1.42,0.28-2.53,0.38-3.64
			c0.39-4.1,1.45-5.2,5.49-5.32c3.12-0.09,6.24-0.01,9.35-0.01c8.53,0.01,17.07-0.02,25.6,0.03c5.03,0.03,6.11,1.06,6.15,6.05
			c0.06,8.86,0.05,17.73-0.03,26.59c-0.06,6.09-1.91,11.42-6.01,16.2c-7.38,8.61-6.9,8.73-6.08,20.4
			c1.09,15.54,1.65,31.12,2.39,46.69c0.21,4.4-0.94,8.44-3.6,12.01c-5.38,7.2-14.69,7.14-19.96-0.17c-2.38-3.3-3.48-7.02-3.48-11.08
			c0-2.1,0-4.21,0-7.61c-6.45,6.37-12.35,11.64-19.42,15.37c-7.03,3.71-14.41,6.3-22.25,7.55c-8.02,1.28-16.02,1.12-23.98-0.51
			c-7.77-1.6-15.07-4.43-21.92-8.47c-6.95-4.1-12.79-9.53-19.04-16.3c0,3.26-0.02,5.29,0,7.32c0.03,2.46,0.26,4.93,0.09,7.38
			c-0.41,6.15-5.29,11.15-11.28,11.78c-6.09,0.63-11.83-3.13-13.55-9.07c-0.49-1.7-0.68-3.55-0.68-5.33
			c-0.04-38.73-0.04-77.46-0.01-116.2c0-5.75,1.38-7.2,7.11-6.35c4.49,0.66,9.04,1.8,13.22,3.53c5.17,2.14,8.96,6.02,10.41,11.73
			C-851.69,398.64-851.33,399.36-850.94,400.37z M-860,468.14c0.72,2.63,1.01,5.11,2.04,7.22c10.17,20.8,26.77,33.15,49.84,35.11
			c24.11,2.05,43.05-7.86,56.42-28.07c1.19-1.81,1.84-4.21,2.04-6.4c0.67-7.35,0.9-14.73,1.52-22.09c0.86-10.2,1.16-10.38-5.7-18.11
			c-4.68-5.27-6.44-11.26-6.53-18.03c-0.03-1.97-0.14-3.95,0.04-5.9c0.3-3.23-0.88-5.46-3.37-7.63
			c-25.05-21.86-64.79-18.38-85.91,7.57c-1.48,1.82-1.85,3.68-1.84,5.88c0.04,13.78,0.01,27.57,0,41.35
			C-851.45,466.84-851.45,466.84-860,468.14z M-873.98,391.46c-0.09,1.95-0.22,3.4-0.22,4.85c-0.01,35.95-0.01,71.9,0,107.85
			c0,1.31-0.04,2.67,0.3,3.9c0.52,1.89,2.03,3.33,3.91,3.16c1.4-0.13,3.06-1.19,3.93-2.35c0.78-1.04,0.9-2.79,0.83-4.21
			c-0.32-6.39-0.74-12.78-1.26-19.15c-0.57-6.86-1.35-13.71-1.93-20.58c-0.31-3.65,0.94-5.04,4.61-5.54
			c1.1-0.15,2.21-0.21,3.97-0.38c0-2.62,0-5.03,0-7.44c-0.01-16.09-0.05-32.17,0-48.26c0.01-3.11-0.44-5.92-3.17-7.83
			C-866.15,393.31-869.5,391.68-873.98,391.46z M-734.87,395.13c-4.16-0.39-4.29-0.4-4.34,2.3c-0.1,5.74-0.02,11.49-0.06,17.23
			c-0.01,1.3-0.01,2.65-0.32,3.9c-0.44,1.74-1.71,2.81-3.53,2.94c-1.85,0.14-3.25-0.82-3.85-2.48c-0.49-1.35-0.64-2.87-0.66-4.32
			c-0.07-5.74,0.05-11.49-0.05-17.23c-0.06-3.05-0.45-3.17-4.17-1.98c0,8.3-0.07,16.65,0.03,25.01c0.04,3.37,1.28,6.34,3.59,8.93
			c2.4,2.69,4.51,5.63,6.84,8.39c1.69,2,2.37,4.18,2.17,6.81c-0.55,7.19-1.08,14.39-1.42,21.6c-0.57,12.12-0.99,24.25-1.48,36.38
			c-0.1,2.54,0.38,4.91,2.04,6.91c1.99,2.38,4.45,2.49,6.05-0.16c1.13-1.87,1.92-4.24,1.95-6.41c0.1-6.23-0.13-12.47-0.46-18.69
			c-0.71-13.27-1.54-26.53-2.39-39.78c-0.16-2.44,0.43-4.52,1.96-6.39c2.28-2.79,4.43-5.7,6.83-8.4c2.53-2.84,3.87-6.07,3.89-9.82
			c0.03-7.88,0.02-15.75-0.02-23.63c0-0.44-0.33-0.88-0.62-1.58c-1.05,0.07-2.09,0.14-3.57,0.24c0,1.9,0,3.5,0,5.11
			c0,4.76,0.03,9.52,0,14.28c-0.01,1.31-0.01,2.65-0.29,3.91c-0.44,1.95-1.79,3.11-3.81,3.29c-1.9,0.17-3.69-1.3-4.13-3.49
			c-0.25-1.27-0.18-2.61-0.18-3.92C-734.88,407.87-734.87,401.65-734.87,395.13z"/>
		<path class="st2" d="M-802.69,409.06c22-0.52,41.2,18.74,41.18,41.4c-0.02,20.81-17.21,41.48-41.91,41.26
			c-22.66-0.2-41.09-18.89-40.9-41.75C-844.11,425.91-823.75,408.32-802.69,409.06z M-803.25,483.27
			c16.82,0.59,33.1-12.99,33.48-32.85c0.34-17.94-15.18-33.32-33.3-33.26c-18.03,0.06-32.72,14.87-32.81,33.07
			C-835.96,468.48-821.42,483.21-803.25,483.27z"/>
	</g>
</g>
<g>
	<g>
		<path class="st2" d="M-610.88,404.36c0-2.82-0.02-4.92,0-7.03c0.12-12.91,9.42-22.61,22.24-22.66
			c31.18-0.12,62.36-0.12,93.55,0.01c12.19,0.05,21.67,9.32,21.79,21.49c0.22,22.97,0.21,45.95,0,68.93
			c-0.1,11.34-9.44,20.49-20.73,20.96c-2.75,0.11-5.51,0.02-8.76,0.02c-0.09,2.57-0.22,4.65-0.24,6.72
			c-0.16,14.05-9.47,23.42-23.6,23.46c-30.2,0.07-60.39-0.01-90.59,0.04c-15.28,0.02-23.75-12.12-23.51-23.61
			c0.45-21.65,0.44-43.33,0.02-64.98c-0.22-11.47,8.33-23.42,23.18-23.35C-615.57,404.36-613.63,404.36-610.88,404.36z
			 M-571.79,412.83c0,0.01,0,0.01,0,0.02c-15.43,0-30.86-0.08-46.28,0.03c-8.75,0.07-14.35,6-14.32,14.71
			c0.07,21.5,0.41,43,0.03,64.49c-0.17,9.65,6.72,16.21,15.88,15.81c9.83-0.42,19.69-0.1,29.54-0.1c20.02,0,40.05-0.23,60.07,0.11
			c8.85,0.15,15.69-6.21,15.54-15.67c-0.33-21.66-0.07-43.33-0.17-64.99c-0.01-2.23-0.42-4.65-1.36-6.64
			c-2.57-5.42-7.13-7.81-13.13-7.79C-541.26,412.87-556.52,412.83-571.79,412.83z M-503.02,477.75c3.71,0,6.83,0.37,9.83-0.07
			c6.73-0.99,10.99-5.93,11.46-12.78c0.19-2.78,0.31-5.57,0.32-8.36c0.03-18.22,0.03-36.43-0.01-54.65c0-2.45-0.14-4.93-0.46-7.36
			c-0.73-5.59-4.79-10-10.31-11.15c-2.07-0.43-4.23-0.58-6.35-0.58c-29.05-0.04-58.09-0.04-87.14,0.01c-2.28,0-4.64,0.14-6.81,0.73
			c-5.19,1.42-8.59,4.99-9.54,10.21c-0.6,3.27-0.11,6.74-0.11,10.62c2.16,0,3.92,0,5.69,0c23.3,0,46.61-0.06,69.91,0.02
			c14.21,0.05,23.47,9.35,23.51,23.45c0.04,14.61,0.02,29.21,0.02,43.82C-503.02,473.44-503.02,475.23-503.02,477.75z"/>
		<path class="st2" d="M-571.21,426.94c14.28,0,28.56-0.01,42.85,0c6.58,0.01,7.21,0.66,7.25,7.42c0.03,6.57,0.04,13.13,0.08,19.7
			c0.03,4.9-1.1,6.21-5.93,6.22c-13.95,0.05-27.91,0.02-41.86,0.02c-15.1,0-30.21,0-45.31,0c-1.31,0-2.63,0.05-3.94-0.05
			c-3.15-0.25-4.54-1.41-4.59-4.6c-0.14-8.04-0.14-16.09,0.01-24.13c0.06-3.21,1.61-4.46,5.16-4.55c4.27-0.11,8.54-0.03,12.8-0.03
			C-593.54,426.94-582.38,426.94-571.21,426.94z M-529.64,435.94c-5.58-0.98-80.64-0.79-84.32,0.19c0,5.11,0,10.27,0,15.34
			c5.01,1.04,80.54,0.89,84.32-0.13C-529.64,446.2-529.64,441.03-529.64,435.94z"/>
		<path class="st2" d="M-552.63,488.99c8.2,0,16.4,0,24.59,0c1.15,0,2.3-0.02,3.44,0.1c2.16,0.22,3.13,1.69,3.3,3.65
			c0.17,1.98-0.56,3.64-2.68,4.09c-1.59,0.34-3.24,0.51-4.87,0.51c-15.9,0.04-31.81,0.04-47.71,0c-1.79,0-3.62-0.11-5.37-0.49
			c-1.99-0.43-3.11-1.98-3.02-3.95c0.09-1.95,1.36-3.37,3.31-3.77c1.26-0.26,2.61-0.16,3.92-0.16c8.36-0.01,16.72-0.01,25.08-0.01
			C-552.63,488.98-552.63,488.98-552.63,488.99z"/>
		<path class="st2" d="M-541.65,479.15c-4.59,0-9.18,0.02-13.78-0.01c-1.14-0.01-2.35,0.04-3.4-0.31c-1.65-0.55-2.81-1.73-2.79-3.63
			c0.03-2.04,1.07-3.44,3.05-3.93c1.1-0.27,2.28-0.25,3.42-0.25c9.02-0.02,18.04-0.01,27.06,0c0.82,0,1.65-0.04,2.46,0.04
			c3.07,0.29,4.44,1.61,4.36,4.17c-0.07,2.51-1.45,3.75-4.64,3.91c-2.29,0.11-4.59,0.02-6.89,0.02c-2.95,0-5.9,0-8.86,0
			C-541.65,479.16-541.65,479.15-541.65,479.15z"/>
		<path class="st2" d="M-608.75,497.15c-3.11,0-6.24,0.19-9.34-0.05c-3.11-0.24-4.6-1.81-4.53-4.12c0.07-2.3,1.8-3.93,4.67-3.97
			c6.23-0.09,12.47-0.09,18.7,0.01c2.75,0.05,4.57,1.85,4.55,4.09c-0.01,2.06-1.56,3.72-4.23,3.9c-3.26,0.22-6.55,0.05-9.83,0.05
			C-608.75,497.1-608.75,497.13-608.75,497.15z"/>
	</g>
</g>
<g>
	<g>
		<path class="st2" d="M-343.51,493.87c-3.24,9.84-9.56,15.69-19.52,15.92c-10.7,0.25-17.27-5.96-20.68-16.17
			c-3.7,0-7.29,0.06-10.87-0.01c-7.21-0.14-11.94-4.68-12.45-11.88c-0.06-0.82-0.02-1.64-0.02-2.46c0-24.78-0.01-49.56,0.02-74.34
			c0-1.78,0.15-3.63,0.63-5.33c1.44-5.2,5.31-8.28,10.67-8.68c1.31-0.1,2.62-0.05,3.94-0.06c28.55,0,57.11-0.01,85.66-0.01
			c0.33,0,0.66,0.02,0.98,0c9.23-0.78,15.25,5.11,14.47,14.24c-0.13,1.58-0.02,3.19-0.02,5.04c1.81,0.19,3.07,0.43,4.33,0.44
			c4.76,0.04,9.52-0.03,14.28,0.02c8.52,0.1,13.06,3.23,16.09,11.11c2.12,5.51,4.12,11.07,6.2,16.59c0.8,2.13,1.68,4.23,2.72,6.84
			c2.16,0,4.26-0.03,6.36,0.01c2.29,0.04,4.61-0.04,6.88,0.25c5.56,0.7,9.38,4.62,9.47,10.18c0.18,10.99,0.11,21.99,0.04,32.98
			c-0.03,3.81-1.26,4.99-5.06,5.06c-5.41,0.09-10.82,0.02-16.55,0.02c-0.62,1.36-1.21,2.66-1.81,3.96
			c-3.66,7.94-10.03,12.24-18.61,12.25c-8.37,0.01-14.66-4.18-18.4-11.84c-0.64-1.31-1.16-2.66-1.8-4.14
			C-305.52,493.87-324.34,493.87-343.51,493.87z M-286.67,485.24c0.86-1.78,1.59-3.41,2.41-4.99c4.23-8.1,13.06-12.3,21.86-10.45
			c7.14,1.5,12,5.71,14.83,12.37c0.63,1.48,0.96,3.27,3.12,3.28c3.73,0.01,7.46,0,10.88,0c0.45-0.84,0.74-1.12,0.74-1.4
			c0.06-9.03,0.08-18.05,0.13-27.08c0.01-2.51-1.42-3.55-3.69-3.64c-2.46-0.1-4.92-0.02-7.39-0.06c-9.87-0.15-8.59,1.43-12.55-8.69
			c-2.57-6.57-4.98-13.19-7.41-19.81c-1.09-2.96-2.81-5.6-6.07-5.75c-6.67-0.31-13.36-0.09-20.7-0.09c0,2.15,0,3.9,0,5.64
			c-0.05,14.44-0.09,28.89-0.15,43.33c0,0.98-0.01,1.97-0.18,2.93c-0.37,2.1-1.82,3.05-3.83,3.13c-2.08,0.08-3.51-1.02-3.97-2.98
			c-0.33-1.41-0.24-2.93-0.24-4.4c-0.01-20.36,0.01-40.71-0.02-61.07c-0.01-5.51-0.9-6.47-6.16-6.48
			c-29.22-0.04-58.44-0.04-87.66-0.02c-4.79,0-5.76,1.04-5.9,5.75c-0.02,0.66-0.01,1.31-0.01,1.97c0,23.8,0.01,47.61,0.02,71.41
			c0,0.98-0.05,1.97,0.03,2.95c0.23,2.84,1.08,4.05,3.78,4.23c3.71,0.25,7.44,0.06,11.17,0.06c3.36-9.96,9.76-15.93,19.98-15.99
			c10.46-0.05,16.86,6.16,20.18,15.84C-324.39,485.24-305.57,485.24-286.67,485.24z M-351.6,489.69c0.07-6.48-5.19-11.86-11.72-12
			c-6.58-0.14-12.23,5.45-12.2,12.07c0.03,6.29,5.69,11.83,12.03,11.79C-357.03,501.52-351.67,496.17-351.6,489.69z M-254.46,489.4
			c-0.11-6.55-5.55-11.81-12.09-11.71c-6.47,0.1-11.82,5.65-11.7,12.13c0.12,6.52,5.62,11.84,12.12,11.71
			C-259.58,501.4-254.35,495.96-254.46,489.4z"/>
		<path class="st2" d="M-382.38,444.91c3.46-16.08,12.95-25.74,28.99-29.14c0.98-2.13,1.43-5.08,4.87-5.05
			c3.19,0.04,3.89,2.51,4.62,4.97c16.04,3.35,25.77,13.02,29.21,29.1c1.05,0.4,2.14,0.7,3.13,1.22c1.65,0.87,2.15,2.39,1.98,4.16
			c-0.18,1.91-1.34,2.96-3.15,3.24c-1.45,0.23-2.93,0.37-4.39,0.36c-21.16-0.04-42.31-0.12-63.47-0.19c-1.31,0-2.62-0.03-3.92-0.14
			c-2.08-0.18-3.36-1.43-3.62-3.41c-0.26-2,0.78-3.48,2.65-4.24C-384.58,445.43-383.61,445.25-382.38,444.91z M-373.58,445.45
			c16.87-0.19,33.32,0.17,49.83-0.24c-1.41-11.96-12.01-21-24.46-21.39C-360.24,423.43-371.04,432.28-373.58,445.45z"/>
	</g>
</g>
</svg>
